<svg xmlns="http://www.w3.org/2000/svg" xmlns:xlink="http://www.w3.org/1999/xlink" xmlns:lucid="lucid" width="1092" height="688"><defs><style>:root{color-scheme: light dark;--svg-bg:#f7f9f7;--svg-panel:#ffffff;--svg-panel-muted:#eef3ef;--svg-border:#c8d0d6;--svg-text:#1f2520;--svg-muted:#53605a;--svg-line:#53605a;--nvidia-green:#76B900;--svg-blue:#1565C0;--svg-red:#c62828;--svg-amber:#f9a825;--svg-icon-on-accent:#fff;fill:var(--svg-text);background:var(--svg-bg)}defs path,use{fill:var(--svg-text)}@media (prefers-color-scheme:dark){:root{--svg-bg:#101512;--svg-panel:#18201b;--svg-panel-muted:#202a24;--svg-border:#50605a;--svg-text:#f3f7f2;--svg-muted:#b9c8b7;--svg-line:#cbd8c9;--nvidia-green:#8bd80f;--svg-blue:#6eb6ff;--svg-red:#ff8a80;--svg-amber:#ffd166}}</style></defs><g transform="translate(60 192)" lucid:page-tab-id="0_0"><path d="M-1000-500h2500v2500h-2500z" fill="var(--svg-bg)"/><path d="M-34.18-180h488.55v109.16H-34.18z" stroke="var(--svg-border)" stroke-width="2" fill="var(--svg-panel)"/><path d="M-200-300h1291.67v900H-200z" stroke="var(--svg-border)" stroke-width="2" fill="var(--svg-panel)"/><path d="M129.5 34.75c0 30.22-24.53 54.75-54.75 54.75S20 64.97 20 34.75 44.53-20 74.75-20 129.5 4.53 129.5 34.75z" stroke="#000" stroke-opacity="0" stroke-width="3.13" fill="var(--svg-blue)"/><path d="M49.4 45.7l-5.1 22.78h30.23L68.97 45.7H49.4z" stroke="#000" stroke-opacity="0" stroke-width="3.13" fill="var(--svg-icon-on-accent)"/><path d="M76.2 54.83h24.4v-38.8H34.34v38.8H45.8V52.5h-9.2V18.3h61.74v34.2H73.3l3.58 15h5.76v-2.27h-3.9l-2.53-10.4z" stroke="#000" stroke-opacity="0" stroke-width="3.13" fill="var(--svg-icon-on-accent)"/><path d="M93.7 22.8v25.1H73.18v2.3H96V20.5l-57.06.02v29.67h6.4v-2.3H41.2V22.8h52.5z" stroke="#000" stroke-opacity="0" stroke-width="3.13" fill="var(--svg-icon-on-accent)"/><path d="M67.52 35.4c0 4.42-3.58 8-8 8-4.4 0-7.98-3.58-7.98-8 0-4.4 3.58-8 8-8 4.4 0 7.98 3.6 7.98 8zM111.76 2.9H87.3V14h15.4v42.8H87.24v5.43h8.32l-1.18 2.37H89.5v2.23h6.24l2.3-4.6h2.93l2.28 4.6h6.25V64.6h-4.88l-1.17-2.37h8.3V2.9z" stroke="#000" stroke-opacity="0" stroke-width="3.13" fill="var(--svg-icon-on-accent)"/><use xlink:href="#a" transform="matrix(1,0,0,1,-10,98.5) translate(24.203559027777786 21.52777777777778)"/><use xlink:href="#b" transform="matrix(1,0,0,1,-10,98.5) translate(130.46440972222223 21.52777777777778)"/><path d="M129.5 277.25c0 30.22-24.53 54.75-54.75 54.75S20 307.47 20 277.25s24.53-54.75 54.75-54.75 54.75 24.53 54.75 54.75z" stroke="#000" stroke-opacity="0" stroke-width="3.13" fill="var(--svg-blue)"/><path d="M49.4 288.2l-5.1 22.78h30.23l-5.56-22.78H49.4z" stroke="#000" stroke-opacity="0" stroke-width="3.13" fill="var(--svg-icon-on-accent)"/><path d="M76.2 297.33h24.4v-38.8H34.34v38.8H45.8V295h-9.2v-34.2h61.74V295H73.3l3.58 15h5.76v-2.27h-3.9l-2.53-10.4z" stroke="#000" stroke-opacity="0" stroke-width="3.13" fill="var(--svg-icon-on-accent)"/><path d="M93.7 265.3v25.1H73.18v2.3H96V263H38.93v29.7h6.4v-2.3H41.2v-25.1h52.5z" stroke="#000" stroke-opacity="0" stroke-width="3.13" fill="var(--svg-icon-on-accent)"/><path d="M67.52 277.9c0 4.42-3.58 8-8 8-4.4 0-7.98-3.58-7.98-8 0-4.4 3.58-8 8-8 4.4 0 7.98 3.6 7.98 8zM111.76 245.4H87.3v11.1h15.4v42.8H87.24v5.43h8.32l-1.18 2.37H89.5v2.23h6.24l2.3-4.6h2.93l2.28 4.6h6.25v-2.23h-4.88l-1.17-2.37h8.3V245.4z" stroke="#000" stroke-opacity="0" stroke-width="3.13" fill="var(--svg-icon-on-accent)"/><use xlink:href="#a" transform="matrix(1,0,0,1,-10,341) translate(24.599609375000007 21.52777777777778)"/><use xlink:href="#c" transform="matrix(1,0,0,1,-10,341) translate(130.86046006944443 21.52777777777778)"/><path d="M407.18 113.9l47.2 27.15v54.3l-47.2 27.15L360 195.35v-54.3l47.18-27.15z" stroke="#000" stroke-opacity="0" stroke-width="3.13" fill="var(--nvidia-green)"/><path d="M389.17 183.5l-7.86 7.9v-7.42h-2.24v11.26h11.24V193h-7.4l7.86-7.9-1.6-1.6zM406.1 133.5v9.72h2.25v-9.66l5.54 5.6 1.6-1.57-8.25-8.4-8.28 8.22 1.6 1.6 5.54-5.5zM433.06 183.44v7.4l-7.87-7.87-1.6 1.6 7.87 7.88h-7.4v2.25h11.23v-11.26h-2.24zM414.54 163.88l-7.4-4.26-7.4 4.26v8.53l7.4 4.27 7.4-4.26v-8.52z" stroke="#000" stroke-opacity="0" stroke-width="3.13" fill="var(--svg-icon-on-accent)"/><path d="M399.73 151.3v8.56l1.26.74 6.14-3.57 6.14 3.57 1.26-.73v-8.58l-7.4-4.28-7.4 4.27zM424.74 169.73l-7.4-4.24-.53.28v7.85l-6.88 3.96v.67l7.4 4.26 7.42-4.26v-8.54zM397.5 165.84l-.67-.35-7.4 4.23v8.54l7.4 4.26 7.43-4.26v-.75l-6.77-3.9v-7.78z" stroke="#000" stroke-opacity="0" stroke-width="3.13" fill="var(--svg-icon-on-accent)"/><use xlink:href="#d" transform="matrix(1,0,0,1,330,231.49999999999994) translate(5.842013888888886 21.52777777777778)"/><use xlink:href="#e" transform="matrix(1,0,0,1,330,231.49999999999994) translate(87.47178819444444 21.52777777777778)"/><use xlink:href="#f" transform="matrix(1,0,0,1,330,231.49999999999994) translate(26.414930555555564 53.79340277777778)"/><path d="M140-34a6 6 0 0 1 6-6h104.25a6 6 0 0 1 6 6v93.2a6 6 0 0 1-6 6H146a6 6 0 0 1-6-6z" fill="none"/><use xlink:href="#g" transform="matrix(1,0,0,1,145,-34.99999999999998) translate(0 22.17777777777778)"/><use xlink:href="#h" transform="matrix(1,0,0,1,145,-34.99999999999998) translate(0 55.77777777777777)"/><use xlink:href="#i" transform="matrix(1,0,0,1,145,-34.99999999999998) translate(0 89.37777777777777)"/><path d="M140 286a6 6 0 0 1 6-6h156.43a6 6 0 0 1 6 6v59.6a6 6 0 0 1-6 6H146a6 6 0 0 1-6-6z" fill="none"/><use xlink:href="#j" transform="matrix(1,0,0,1,145,284.99999999999994) translate(0 21.97777777777778)"/><use xlink:href="#k" transform="matrix(1,0,0,1,145,284.99999999999994) translate(60.466666666666676 21.97777777777778)"/><use xlink:href="#l" transform="matrix(1,0,0,1,145,284.99999999999994) translate(87.86666666666667 21.97777777777778)"/><use xlink:href="#m" transform="matrix(1,0,0,1,145,284.99999999999994) translate(0 55.57777777777777)"/><use xlink:href="#n" transform="matrix(1,0,0,1,145,284.99999999999994) translate(34.955555555555556 55.57777777777777)"/><path d="M707.18-120l47.2 27.15v54.3l-47.2 27.15L660-38.55v-54.3L707.18-120z" stroke="#000" stroke-opacity="0" stroke-width="3.13" fill="var(--nvidia-green)"/><path d="M689.17-50.4l-7.86 7.9v-7.42h-2.24v11.26h11.24v-2.25h-7.4l7.86-7.9-1.6-1.6zM706.1-100.4v9.72h2.25v-9.66l5.54 5.6 1.6-1.57-8.25-8.4-8.28 8.22 1.6 1.6 5.54-5.5zM733.06-50.46v7.4l-7.87-7.87-1.6 1.6 7.87 7.88h-7.4v2.25h11.23v-11.26h-2.24zM714.54-70.02l-7.4-4.26-7.4 4.26v8.53l7.4 4.27 7.4-4.26V-70z" stroke="#000" stroke-opacity="0" stroke-width="3.13" fill="var(--svg-icon-on-accent)"/><path d="M699.73-82.6v8.56l1.26.74 6.14-3.57 6.14 3.57 1.26-.73v-8.58l-7.4-4.28-7.4 4.27zM724.74-64.17l-7.4-4.25-.53.3v7.86l-6.88 3.95v.67l7.4 4.27 7.4-4.27v-8.54zM697.5-68.06l-.66-.36-7.4 4.25v8.54l7.4 4.27 7.42-4.27v-.75l-6.77-3.88v-7.8z" stroke="#000" stroke-opacity="0" stroke-width="3.13" fill="var(--svg-icon-on-accent)"/><use xlink:href="#o" transform="matrix(1,0,0,1,630,-2.3999999999999915) translate(10.149739583333329 21.52777777777778)"/><use xlink:href="#p" transform="matrix(1,0,0,1,630,-2.3999999999999915) translate(69.99131944444443 21.52777777777778)"/><use xlink:href="#q" transform="matrix(1,0,0,1,630,-2.3999999999999915) translate(33.109809027777786 53.79340277777778)"/><use xlink:href="#r" transform="matrix(1,0,0,1,630,-2.3999999999999915) translate(39.82638888888889 86.05902777777777)"/><path d="M907.18-40l47.2 27.15v54.3l-47.2 27.15L860 41.45v-54.3L907.18-40z" stroke="#000" stroke-opacity="0" stroke-width="3.13" fill="var(--nvidia-green)"/><path d="M889.17 29.6l-7.86 7.9v-7.42h-2.24v11.26h11.24V39.1h-7.4l7.86-7.9-1.6-1.6zM906.1-20.4v9.72h2.25v-9.66l5.54 5.6 1.6-1.57-8.25-8.4-8.28 8.22 1.6 1.6 5.54-5.5zM933.06 29.54v7.4l-7.87-7.87-1.6 1.6 7.87 7.88h-7.4v2.25h11.23V29.54h-2.24zM914.54 9.98l-7.4-4.26-7.4 4.26v8.53l7.4 4.27 7.4-4.26V10z" stroke="#000" stroke-opacity="0" stroke-width="3.13" fill="var(--svg-icon-on-accent)"/><path d="M899.73-2.6v8.57l1.26.73 6.14-3.57 6.14 3.57 1.26-.74V-2.6l-7.4-4.28-7.4 4.27zM924.74 15.83l-7.4-4.24-.53.28v7.85l-6.88 3.96v.67l7.4 4.27 7.4-4.27v-8.54zM897.5 11.94l-.66-.35-7.4 4.23v8.54l7.4 4.27 7.42-4.27v-.75l-6.77-3.9v-7.78z" stroke="#000" stroke-opacity="0" stroke-width="3.13" fill="var(--svg-icon-on-accent)"/><use xlink:href="#o" transform="matrix(1,0,0,1,830,77.60000000000004) translate(10.149739583333329 21.52777777777778)"/><use xlink:href="#p" transform="matrix(1,0,0,1,830,77.60000000000004) translate(69.99131944444443 21.52777777777778)"/><use xlink:href="#s" transform="matrix(1,0,0,1,830,77.60000000000004) translate(30.565321180555557 53.79340277777778)"/><path d="M706.92 280l46.93 27v54l-46.93 27L660 361v-54l46.92-27z" stroke="#000" stroke-opacity="0" stroke-width="3.13" fill="var(--nvidia-green)"/><path d="M689 349.23l-7.8 7.84v-7.38h-2.24v11.2h11.17v-2.25h-7.36l7.82-7.84-1.6-1.57zM705.85 299.5v9.66h2.24v-9.6l5.5 5.57 1.58-1.57-8.2-8.33-8.22 8.16 1.58 1.58 5.5-5.48zM732.65 349.15v7.38l-7.82-7.84-1.58 1.57 7.82 7.84h-7.35v2.25h11.17v-11.2h-2.25zM714.24 329.7l-7.36-4.23-7.37 4.24v8.5l7.38 4.22 7.36-4.24v-8.47z" stroke="#000" stroke-opacity="0" stroke-width="3.13" fill="var(--svg-icon-on-accent)"/><path d="M699.5 317.18v8.53l1.26.74 6.12-3.55 6.1 3.54 1.26-.73v-8.52l-7.36-4.24-7.37 4.24zM724.38 335.52L717 331.3l-.5.3v7.8l-6.86 3.94v.68l7.37 4.24 7.38-4.24v-8.5zM697.28 331.66l-.65-.36-7.35 4.22v8.5l7.35 4.24 7.38-4.24v-.75l-6.72-3.87v-7.74z" stroke="#000" stroke-opacity="0" stroke-width="3.13" fill="var(--svg-icon-on-accent)"/><use xlink:href="#t" transform="matrix(1,0,0,1,630,397) translate(0.09027777777777146 21.52777777777778)"/><use xlink:href="#p" transform="matrix(1,0,0,1,630,397) translate(79.05078124999999 21.52777777777778)"/><use xlink:href="#u" transform="matrix(1,0,0,1,630,397) translate(27.808376736111114 53.79340277777778)"/><path d="M135.55 34.4h.02l5.66.36h.02l5.34.56 5.08.75h.02l4.84.93h.02l4.66 1.1h.02l4.5 1.26h.02l4.4 1.43h.02l4.3 1.6h.02l4.26 1.8h.02l4.23 2h.02l4.25 2.22 4.3 2.48h.02l4.36 2.8h.02l4.53 3.15h.02v.02l4.78 3.62 5.14 4.25h.02l5.72 5.17 6.8 6.67h.02l9.53 10.2 34.67 38.9 6.77 6.64 5.7 5.14 5.12 4.23 4.74 3.62 4.5 3.14 4.38 2.77 4.26 2.47 4.22 2.2 4.2 1.98 4.25 1.78 4.3 1.6 4.36 1.42 4.5 1.25 4.64 1.1 4.83.9 5.05.76.68.06-.1.95-.7-.07-5.08-.75h-.02l-4.84-.93h-.02l-4.66-1.1h-.02l-4.5-1.26h-.02l-4.4-1.44h-.02l-4.3-1.6H315v-.02l-4.26-1.78h-.02l-4.23-2h-.02l-4.25-2.23-4.3-2.48-4.4-2.8-4.54-3.15h-.02v-.02l-4.78-3.62-5.14-4.26h-.02l-5.72-5.17-6.8-6.67v-.02h-.02l-34.66-38.9-9.53-10.18-6.77-6.65-5.7-5.13-5.12-4.23-4.74-3.6-4.5-3.15-4.38-2.78-4.26-2.47-4.22-2.2-4.2-1.98-4.25-1.78-4.3-1.6-4.36-1.43L161 39l-4.64-1.07-4.83-.92-5.05-.74-5.32-.56-5.64-.35-5.53-.12v-.95z" stroke="var(--svg-line)" stroke-width=".05" fill="var(--svg-line)"/><path d="M130.03 34.3l-.02.94-.52-.02.02-.47v-.48z" fill="var(--svg-line)"/><path stroke="var(--svg-line)" stroke-width=".05" fill="var(--svg-line)"/><path d="M358.4 168.1l-14.53 3.8.55-9.27z" fill="var(--svg-line)"/><path d="M359.92 168.2l-16.56 4.3.62-10.55zm-15.54 3.06l12.47-3.25-12-4.7z" stroke="var(--svg-line)" stroke-width=".05" fill="var(--svg-line)"/><path d="M343.7 169.48l-4.06.43-5.9.88-5.6 1.07-5.33 1.25-5.13 1.43-4.97 1.62-4.87 1.8-4.8 2.02-4.8 2.26-4.83 2.53-4.95 2.86-5.17 3.3-5.56 3.85-6.23 4.74-7.64 6.33-24.1 22.26-13.5 12.22v.02l-7.65 6.34-6.25 4.76h-.02l-5.57 3.9h-.02l-5.2 3.3-4.98 2.88h-.02l-4.85 2.55h-.02l-4.82 2.27-4.84 2.03-4.9 1.83h-.02l-5 1.63-5.16 1.44h-.02l-5.35 1.26h-.02l-5.6 1.07h-.02l-5.94.88h-.02l-6.32.67h-.02l-6.77.42h-.02l-6.84.14v-.94l6.82-.14 6.75-.42 6.3-.66 5.9-.87 5.6-1.07 5.32-1.25 5.13-1.43 4.97-1.62 4.87-1.8 4.8-2.02 4.8-2.26 4.82-2.53 4.95-2.87 5.17-3.3 5.56-3.85 6.23-4.74 7.64-6.32 13.48-12.23 24.1-22.27h.02v-.02l7.65-6.33 6.25-4.76h.02l5.57-3.88h.02l5.2-3.3v-.02l4.98-2.87h.02l4.85-2.55h.02l4.82-2.27 4.84-2.02 4.9-1.83h.02l5-1.63 5.16-1.44h.02l5.35-1.26h.02l5.6-1.07h.02l5.94-.88h.02l4.07-.43z" stroke="var(--svg-line)" stroke-width=".05" fill="var(--svg-line)"/><path d="M130.03 277.7l-.55.03.02-.48v-.48h.5z" fill="var(--svg-line)"/><path stroke="var(--svg-line)" stroke-width=".05" fill="var(--svg-line)"/><path d="M358.38 168.28l-14 5.34-.47-9.26z" fill="var(--svg-line)"/><path d="M359.92 168.2l-16 6.1-.52-10.57zm-15.1 4.74l12.03-4.58L344.4 165zM643.92-63.15l-1.9.53-2.42.78-2.4.9-2.4 1-2.42 1.15-2.44 1.28-2.47 1.43-2.52 1.6-2.58 1.8-2.65 2.02-2.75 2.27-2.86 2.57-3 2.94-3.16 3.4-3.38 3.9-3.65 4.62-4 5.52-4.47 6.75-5.18 8.54-6.32 11.54-37.7 82.04v.02l-8.94 18.1h-.02v.02l-6.34 11.56v.02l-5.2 8.57v.02l-4.5 6.78-4.02 5.54v.02l-3.67 4.63-3.4 3.94h-.02l-3.2 3.4v.02l-3 2.95-.02.02-2.87 2.6H498l-2.75 2.3h-.02l-2.67 2.04-2.6 1.8v.02h-.02l-2.54 1.62h-.02l-2.5 1.44-2.46 1.3h-.02l-2.44 1.15-2.44 1.02-2.44.9v.02l-2.44.78h-.02l-2.45.7h-.02l-2.47.58h-.02l-2.52.48h-.02l-2.56.4h-.02l-2.63.26-2.7.18h-.02l-2.3.04-.02-.94 2.28-.05 2.68-.17 2.6-.28 2.55-.37 2.5-.48 2.45-.57 2.43-.68 2.4-.78 2.4-.9 2.42-1 2.42-1.15 2.42-1.28 2.48-1.43 2.52-1.6 2.58-1.8 2.65-2.02 2.75-2.28 2.86-2.57 3-2.94 3.17-3.4 3.38-3.9 3.66-4.62 4-5.52 4.48-6.75 5.17-8.54 6.34-11.55 8.94-18.08L580.08.97V.94l6.35-11.57v-.02l5.2-8.57v-.02l4.5-6.78 4-5.54h.02v-.02l3.67-4.63 3.4-3.94h.02l3.18-3.4v-.02h.02l3-2.95v-.02h.02l2.88-2.6 2.78-2.3 2.68-2.04h.02l2.6-1.8v-.02l2.55-1.62 2.5-1.45h.02l2.45-1.3h.02l2.43-1.14h.02l2.42-1.02h.02l2.42-.9h.02v-.02l2.43-.78h.02l1.92-.55z" stroke="var(--svg-line)" stroke-width=".05" fill="var(--svg-line)"/><path d="M454.9 168.66l-.53.02v-.96h.5z" fill="var(--svg-line)"/><path stroke="var(--svg-line)" stroke-width=".05" fill="var(--svg-line)"/><path d="M658.4-65.5l-13.56 6.43-1.2-9.2z" fill="var(--svg-line)"/><path d="M659.92-65.7l-15.47 7.34-1.35-10.5zm-14.7 5.92l11.65-5.52-12.66-2.38zM843.65 15.13l-14 .88-13.2 1.4-12.25 1.8-11.47 2.18-10.86 2.55-10.4 2.9-10.05 3.27-9.86 3.67-9.82 4.12-9.95 4.68-10.35 5.4-11.15 6.45-12.8 8.14-62.6 45.95h-.02l-17.47 12.2-12.83 8.16h-.02l-11.16 6.46h-.02L583 140.78l-9.98 4.7H573l-9.83 4.14v.02h-.02l-9.88 3.68h-.02l-10.08 3.28h-.02l-10.4 2.9h-.02l-10.9 2.56-11.5 2.2h-.02l-12.25 1.8h-.02l-13.24 1.4h-.02l-14.45.9h-.02l-15.42.32-.02-.94 15.42-.32 14.42-.9 13.22-1.4 12.25-1.8 11.47-2.18 10.85-2.55 10.38-2.9 10.06-3.27 9.87-3.67 9.83-4.12 9.95-4.68 10.34-5.4 11.15-6.45 12.8-8.15 17.46-12.17 62.6-45.95h.02v-.02h.02l12.83-8.16h.02l11.16-6.46h.02l10.36-5.43 10-4.7 9.84-4.14v-.02h.02l9.88-3.68h.02l10.08-3.28h.02l10.4-2.9h.02l10.88-2.56h.02l11.5-2.2 12.28-1.8h.02l13.23-1.4h.02l14-.88z" stroke="var(--svg-line)" stroke-width=".05" fill="var(--svg-line)"/><path d="M454.9 168.66l-.53.02v-.96h.5z" fill="var(--svg-line)"/><path stroke="var(--svg-line)" stroke-width=".05" fill="var(--svg-line)"/><path d="M858.38 14.34l-14.16 4.94-.2-9.27z" fill="var(--svg-line)"/><path d="M859.92 14.3l-16.16 5.64-.23-10.57zm-15.24 4.3l12.17-4.23-12.34-3.72zM458.3 167.8l3.74.24h.02l3.57.38h.02l3.46.5h.02l3.35.65h.02l3.24.77h.02l3.2.9 3.14 1.02h.02l3.1 1.16 3.1 1.3 3.07 1.45 3.1 1.6v.02l3.1 1.8h.02l3.15 2h.02l3.2 2.24h.02l3.3 2.53h.02l3.44 2.85v.02h.02l3.6 3.24v.02l3.84 3.75h.02l4.13 4.42v.02L527 206l5.28 6.67.02.02 6.54 9.02v.02l10.45 15.8 27.05 42.4 6.53 9 5.26 6.65 4.57 5.3 4.13 4.38 3.8 3.74 3.6 3.23 3.42 2.83 3.3 2.5 3.2 2.23 3.12 2 3.1 1.78 3.05 1.6 3.04 1.43 3.05 1.3 3.07 1.14 3.1 1 3.18.9 3.24.76 1.7.32-.18.94-1.72-.33h-.02l-3.26-.77h-.02l-3.18-.9h-.02l-3.14-1.02-3.1-1.16h-.02l-3.08-1.3h-.02l-3.07-1.45-3.1-1.6v-.02l-3.1-1.8h-.02l-3.15-2h-.02l-3.22-2.24-3.33-2.53-3.45-2.85v-.02l-3.6-3.24h-.02v-.02l-3.84-3.75-4.14-4.42h-.02v-.02l-4.58-5.3-5.28-6.67v-.02l-6.56-9.02v-.02l-27.06-42.4-10.43-15.8-6.54-9-5.24-6.65-4.57-5.3-4.13-4.38-3.8-3.74-3.6-3.23-3.42-2.83-3.3-2.5-3.2-2.23-3.13-2-3.08-1.78-3.06-1.6-3.05-1.43-3.05-1.3-3.08-1.14-3.12-1-3.16-.9-3.24-.76-3.32-.63-3.44-.5-3.55-.38-3.7-.24-3.4-.07v-.96z" stroke="var(--svg-line)" stroke-width=".05" fill="var(--svg-line)"/><path d="M454.9 167.74l-.03.95-.5-.02v-.96z" fill="var(--svg-line)"/><path stroke="var(--svg-line)" stroke-width=".05" fill="var(--svg-line)"/><path d="M658.4 333.85l-14.64 3.3.85-9.23z" fill="var(--svg-line)"/><path d="M659.92 334l-16.7 3.76.98-10.54zm-15.63 2.54l12.56-2.83-11.84-5.1z" stroke="var(--svg-line)" stroke-width=".05" fill="var(--svg-line)"/><path d="M-14.18-154a6 6 0 0 1 6-6h365.7a6 6 0 0 1 6 6v57.16a6 6 0 0 1-6 6H-8.2a6 6 0 0 1-6-6z" fill="none"/><g><use xlink:href="#v" transform="matrix(1,0,0,1,-9.176932174752551,-155.00000000000006) translate(0 21.95095486111111)"/><use xlink:href="#w" transform="matrix(1,0,0,1,-9.176932174752551,-155.00000000000006) translate(85.31901041666666 21.95095486111111)"/><use xlink:href="#x" transform="matrix(1,0,0,1,-9.176932174752551,-155.00000000000006) translate(0 53.14453125)"/><use xlink:href="#y" transform="matrix(1,0,0,1,-9.176932174752551,-155.00000000000006) translate(116.94010416666669 53.14453125)"/><use xlink:href="#z" transform="matrix(1,0,0,1,-9.176932174752551,-155.00000000000006) translate(263.76302083333337 53.14453125)"/><use xlink:href="#A" transform="matrix(1,0,0,1,-9.176932174752551,-155.00000000000006) translate(295.93750000000006 53.14453125)"/></g><path d="M906.92 180l46.93 27v54l-46.93 27L860 261v-54l46.92-27z" stroke="#000" stroke-opacity="0" stroke-width="3.13" fill="var(--nvidia-green)"/><path d="M889 249.23l-7.8 7.84v-7.38h-2.24v11.2h11.17v-2.25h-7.36l7.82-7.84-1.6-1.57zM905.85 199.5v9.66h2.24v-9.6l5.5 5.57 1.58-1.57-8.2-8.33-8.22 8.16 1.58 1.58 5.5-5.47zM932.65 249.16v7.37l-7.82-7.84-1.58 1.57 7.82 7.84h-7.35v2.25h11.17v-11.2h-2.25zM914.24 229.7l-7.36-4.23-7.37 4.24v8.5l7.38 4.22 7.36-4.23v-8.5z" stroke="#000" stroke-opacity="0" stroke-width="3.13" fill="var(--svg-icon-on-accent)"/><path d="M899.5 217.18v8.53l1.26.74 6.12-3.55 6.1 3.54 1.26-.73v-8.52l-7.36-4.24-7.37 4.24zM924.38 235.52L917 231.3l-.5.3v7.8l-6.86 3.94v.68l7.37 4.24 7.38-4.24v-8.5zM897.28 231.66l-.65-.36-7.35 4.22v8.5l7.35 4.24 7.38-4.24v-.75l-6.72-3.87v-7.74z" stroke="#000" stroke-opacity="0" stroke-width="3.13" fill="var(--svg-icon-on-accent)"/><g><use xlink:href="#B" transform="matrix(1,0,0,1,830,297) translate(8.380208333333329 21.52777777777778)"/><use xlink:href="#p" transform="matrix(1,0,0,1,830,297) translate(70.76085069444443 21.52777777777778)"/><use xlink:href="#C" transform="matrix(1,0,0,1,830,297) translate(29.891710069444443 53.79340277777778)"/></g><path d="M489.28 168.43h.02l28.3 1.76 24.02 2.5h.02l21.34 3.15h.02l20.02 3.82h.02l20.33 4.78h.02l24.73 6.95 83.1 25.43 20.3 4.77 20 3.8 21.32 3.15 24 2.5 28.27 1.77 18.5.38v.95l-18.53-.38h-.02l-28.3-1.76h-.02l-24.02-2.5h-.02l-21.34-3.15h-.02l-20.02-3.82h-.02L711 217.74h-.04l-83.1-25.44-24.7-6.93-20.32-4.77-20-3.8-21.33-3.15-23.98-2.5-28.27-1.77-34.4-.7.03-.94z" stroke="var(--svg-line)" stroke-width=".05" fill="var(--svg-line)"/><path d="M454.9 167.74l-.02.94h-.5v-.96z" fill="var(--svg-line)"/><path stroke="var(--svg-line)" stroke-width=".05" fill="var(--svg-line)"/><path d="M858.38 233.97l-14.35 4.34.18-9.25z" fill="var(--svg-line)"/><path d="M859.92 234l-16.38 4.96.2-10.58zm-15.4 3.67l12.33-3.73-12.18-4.23z" stroke="var(--svg-line)" stroke-width=".05" fill="var(--svg-line)"/><defs><path d="M458 0L52-1490h194c108 439 233 855 324 1313 92-459 221-873 331-1313h216c110 438 234 854 330 1307 92-455 216-869 323-1307h196L1558 0h-221l-256-944c-26-95-50-200-73-331-22 122-44 223-73 331L680 0H458" id="D"/><path d="M613 24c-304 0-509-231-509-576 0-350 205-580 509-580 305 0 511 230 511 580 0 345-206 576-511 576zm0-161c226 0 329-195 329-415 0-222-103-419-329-419-223 0-326 196-326 419 0 220 103 415 326 415" id="E"/><path d="M158 0v-1118h174v172h12c41-113 157-188 290-188 26 0 70 2 91 3v181c-11-2-60-10-108-10-161 0-279 109-279 260V0H158" id="F"/><path d="M158 0v-1490h180v865h22l478-493h223L593-638 1096 0H865L456-523 338-412V0H158" id="G"/><path d="M338-1490V0H158v-1490h180" id="H"/><path d="M471 26C259 26 90-98 90-318c0-256 228-303 435-329 202-27 287-16 287-108 0-139-79-219-234-219-161 0-248 86-283 164l-173-57c86-203 278-265 451-265 150 0 419 46 419 395V0H815v-152h-12C765-73 660 26 471 26zm31-159c199 0 310-134 310-271v-155c-30 35-226 55-295 64-131 17-246 59-246 186 0 116 97 176 231 176" id="I"/><path d="M577 24c-279 0-473-224-473-580 0-354 195-576 474-576 218 0 287 134 324 193h14v-551h180V0H922v-173h-20C865-111 790 24 577 24zm27-161c203 0 314-172 314-421 0-247-108-413-314-413-212 0-317 181-317 413 0 235 108 421 317 421" id="J"/><g id="a"><use transform="matrix(0.010850694444444444,0,0,0.010850694444444444,0,0)" xlink:href="#D"/><use transform="matrix(0.010850694444444444,0,0,0.010850694444444444,20.768229166666668,0)" xlink:href="#E"/><use transform="matrix(0.010850694444444444,0,0,0.010850694444444444,34.09288194444444,0)" xlink:href="#F"/><use transform="matrix(0.010850694444444444,0,0,0.010850694444444444,42.80598958333333,0)" xlink:href="#G"/><use transform="matrix(0.010850694444444444,0,0,0.010850694444444444,55.002170138888886,0)" xlink:href="#H"/><use transform="matrix(0.010850694444444444,0,0,0.010850694444444444,60.38411458333333,0)" xlink:href="#E"/><use transform="matrix(0.010850694444444444,0,0,0.010850694444444444,73.92578124999999,0)" xlink:href="#I"/><use transform="matrix(0.010850694444444444,0,0,0.010850694444444444,86.4040798611111,0)" xlink:href="#J"/></g><path d="M52 0l541-1490h220L1361 0h-200l-149-416H398L254 0H52zm404-582h497c-103-290-145-390-251-756-108 377-145 460-246 756" id="K"/><use transform="matrix(0.010850694444444444,0,0,0.010850694444444444,0,0)" xlink:href="#K" id="b"/><path d="M180 0v-1490h528c311 0 458 177 458 395 0 191-114 278-244 313v14c139 9 302 137 302 371 0 225-148 397-499 397H180zm190-168h350c232 0 321-102 321-231 0-149-120-277-311-277H370v508zm0-668h328c160 0 286-101 286-255 0-129-87-231-280-231H370v486" id="L"/><use transform="matrix(0.010850694444444444,0,0,0.010850694444444444,0,0)" xlink:href="#L" id="c"/><path d="M180 0v-1490h224l606 953c40 63 108 177 176 312-27-437-7-821-13-1265h190V0h-226C860-448 622-778 356-1262c27 476 11 792 15 1262H180" id="M"/><path d="M600 0L52-1490h200c166 485 304 806 458 1336 156-533 285-846 449-1336h202L819 0H600" id="N"/><path d="M370-1490V0H180v-1490h190" id="O"/><path d="M645 0H180v-1490h484c435 0 692 280 692 742 0 466-257 748-711 748zM370-168h263c363 0 539-218 539-580 0-358-176-574-521-574H370v1154" id="P"/><g id="d"><use transform="matrix(0.010850694444444444,0,0,0.010850694444444444,0,0)" xlink:href="#M"/><use transform="matrix(0.010850694444444444,0,0,0.010850694444444444,16.74262152777778,0)" xlink:href="#N"/><use transform="matrix(0.010850694444444444,0,0,0.010850694444444444,32.07465277777778,0)" xlink:href="#O"/><use transform="matrix(0.010850694444444444,0,0,0.010850694444444444,38.04253472222222,0)" xlink:href="#P"/><use transform="matrix(0.010850694444444444,0,0,0.010850694444444444,54.07986111111112,0)" xlink:href="#O"/><use transform="matrix(0.010850694444444444,0,0,0.010850694444444444,60.04774305555555,0)" xlink:href="#K"/></g><path d="M783 20c-382 0-661-292-661-764 0-473 279-766 661-766 302 0 548 182 601 489h-190c-42-204-217-313-411-313-268 0-476 208-476 590 0 381 209 588 476 588 195 0 369-110 411-313h190c-52 303-296 489-601 489" id="Q"/><path d="M537 14c-226 0-379-139-379-422v-710h180v695c0 172 97 275 253 275 160 0 281-109 281-300v-670h181V0H879v-209C806-46 684 14 537 14" id="R"/><g id="e"><use transform="matrix(0.010850694444444444,0,0,0.010850694444444444,0,0)" xlink:href="#Q"/><use transform="matrix(0.010850694444444444,0,0,0.010850694444444444,16.23263888888889,0)" xlink:href="#H"/><use transform="matrix(0.010850694444444444,0,0,0.010850694444444444,21.614583333333336,0)" xlink:href="#E"/><use transform="matrix(0.010850694444444444,0,0,0.010850694444444444,34.939236111111114,0)" xlink:href="#R"/><use transform="matrix(0.010850694444444444,0,0,0.010850694444444444,48.07942708333333,0)" xlink:href="#J"/></g><path d="M180 0v-1490h901v168H370v510h643v168H370V0H180" id="S"/><path d="M338-670V0H158v-1118h173l1 207c72-158 192-221 342-221 226 0 378 139 378 422V0H872v-695c0-172-96-275-252-275-161 0-282 109-282 300" id="T"/><path d="M613 24c-304 0-509-231-509-576 0-350 205-580 509-580 216 0 392 114 453 309l-173 49c-33-115-133-197-280-197-223 0-326 196-326 419 0 220 103 415 326 415 150 0 252-85 285-206l172 49C1010-95 832 24 613 24" id="U"/><path d="M598-1118v154H368v674c0 100 37 144 132 144 23 0 62-6 92-12L629-6c-37 13-88 20-134 20-193 0-307-107-307-290v-688H20v-154h168v-266h180v266h230" id="V"/><path d="M158 0v-1118h180V0H158zm91-1301c-68 0-125-53-125-119s57-119 125-119c69 0 126 53 126 119s-57 119-126 119" id="W"/><path d="M538 24C308 24 148-78 108-271l171-41c32 123 123 178 257 178 156 0 256-77 256-169 0-77-54-128-164-154l-186-44c-203-48-300-148-300-305 0-192 176-326 414-326 230 0 351 112 402 269l-163 42c-31-80-94-158-238-158-133 0-233 69-233 162 0 83 57 129 188 160l169 40c203 48 298 149 298 302 0 196-179 339-441 339" id="X"/><g id="f"><use transform="matrix(0.010850694444444444,0,0,0.010850694444444444,0,0)" xlink:href="#S"/><use transform="matrix(0.010850694444444444,0,0,0.010850694444444444,12.369791666666666,0)" xlink:href="#R"/><use transform="matrix(0.010850694444444444,0,0,0.010850694444444444,25.50998263888889,0)" xlink:href="#T"/><use transform="matrix(0.010850694444444444,0,0,0.010850694444444444,38.639322916666664,0)" xlink:href="#U"/><use transform="matrix(0.010850694444444444,0,0,0.010850694444444444,51.334635416666664,0)" xlink:href="#V"/><use transform="matrix(0.010850694444444444,0,0,0.010850694444444444,58.60460069444444,0)" xlink:href="#W"/><use transform="matrix(0.010850694444444444,0,0,0.010850694444444444,63.986545138888886,0)" xlink:href="#E"/><use transform="matrix(0.010850694444444444,0,0,0.010850694444444444,77.31119791666666,0)" xlink:href="#T"/><use transform="matrix(0.010850694444444444,0,0,0.010850694444444444,90.44053819444441,0)" xlink:href="#X"/></g><path d="M297-700c135 0 226 58 223 194 1 168-164 201-277 266-58 33-88 80-88 168h369V0H71C61-154 92-239 204-302c85-48 244-94 235-219-5-71-64-111-142-109-86 2-129 32-155 96l-69-30c35-91 109-136 224-136" id="Y"/><path d="M400 0L259-205 117 0H27l185-258L34-509h93l135 197 134-197h90L308-258 493 0h-93" id="Z"/><path d="M548-200C552-51 448 12 292 12 145 12 48-56 52-200c2-77 48-139 107-161-54-24-91-82-89-160 3-120 104-179 237-179 130 0 228 65 223 195-2 67-39 123-89 144 59 22 105 84 107 161zm-414 0c-4 99 66 142 172 142 99 0 164-47 160-142-3-85-71-125-173-125-93 0-156 44-159 125zm17-318c-3 89 61 126 153 126 89 0 148-39 145-126-3-77-65-112-153-112-83 0-142 38-145 112" id="aa"/><path d="M95 0v-700h83v309h385v-309h83V0h-83v-319H178V0H95" id="ab"/><path d="M289 0v-618H178l10-70h183V0h-82" id="ac"/><path d="M561-300c1 187-84 315-267 312C121 10 36-117 38-300v-88c-1-188 85-315 268-312 174 2 257 128 255 312v88zm-440-87c0 178 18 330 185 326 155-3 173-152 173-326 0-142-49-244-185-241-125 3-173 104-173 241" id="ad"/><g id="g"><use transform="matrix(0.022222222222222223,0,0,0.022222222222222223,0,0)" xlink:href="#Y"/><use transform="matrix(0.022222222222222223,0,0,0.022222222222222223,13.333333333333334,0)" xlink:href="#Z"/><use transform="matrix(0.022222222222222223,0,0,0.022222222222222223,24.88888888888889,0)" xlink:href="#aa"/><use transform="matrix(0.022222222222222223,0,0,0.022222222222222223,38.22222222222222,0)" xlink:href="#Z"/><use transform="matrix(0.022222222222222223,0,0,0.022222222222222223,49.77777777777778,0)" xlink:href="#ab"/><use transform="matrix(0.022222222222222223,0,0,0.022222222222222223,66.24444444444444,0)" xlink:href="#ac"/><use transform="matrix(0.022222222222222223,0,0,0.022222222222222223,79.57777777777777,0)" xlink:href="#ad"/><use transform="matrix(0.022222222222222223,0,0,0.022222222222222223,92.9111111111111,0)" xlink:href="#ad"/></g><path d="M95 0v-700h72l395 559v-559h79V0h-72L175-558V0H95" id="ae"/><path d="M284 0L15-700h90l217 592 218-592h85L356 0h-72" id="af"/><path d="M95 0v-700h83v629h335V0H95" id="ag"/><path d="M80 0v-509h80V0H80zm-2-616v-91h84v91H78" id="ah"/><path d="M317-452c-102 0-157 68-157 174V0H80v-509h73v91c29-61 88-105 180-103 121 2 192 80 192 208V0h-80v-300c1-93-40-152-128-152" id="ai"/><path d="M80 0v-730h80v451l252-230h105L304-316 533 0h-97L245-267l-85 77V0H80" id="aj"/><g id="h"><use transform="matrix(0.022222222222222223,0,0,0.022222222222222223,0,0)" xlink:href="#ae"/><use transform="matrix(0.022222222222222223,0,0,0.022222222222222223,16.355555555555558,0)" xlink:href="#af"/><use transform="matrix(0.022222222222222223,0,0,0.022222222222222223,30.577777777777783,0)" xlink:href="#ag"/><use transform="matrix(0.022222222222222223,0,0,0.022222222222222223,42.82222222222223,0)" xlink:href="#ah"/><use transform="matrix(0.022222222222222223,0,0,0.022222222222222223,48.155555555555566,0)" xlink:href="#ai"/><use transform="matrix(0.022222222222222223,0,0,0.022222222222222223,61.44444444444446,0)" xlink:href="#aj"/></g><path d="M618-206C624-61 528 1 382 0H95v-700h257c145 0 236 56 236 200 0 63-30 109-89 136 71 22 116 72 119 158zm-83 25c0-104-52-140-156-140H178v250c145-8 357 40 357-110zM178-390c147-5 327 37 327-134 0-70-51-105-154-105H178v239" id="ak"/><g id="j"><use transform="matrix(0.022222222222222223,0,0,0.022222222222222223,0,0)" xlink:href="#ak"/><use transform="matrix(0.022222222222222223,0,0,0.022222222222222223,14.733333333333334,0)" xlink:href="#Y"/><use transform="matrix(0.022222222222222223,0,0,0.022222222222222223,28.066666666666666,0)" xlink:href="#ad"/><use transform="matrix(0.022222222222222223,0,0,0.022222222222222223,41.400000000000006,0)" xlink:href="#ad"/></g><path d="M527-273c6 179-76 285-243 285C126 12 46-98 52-272c5-154 87-249 242-249 148 0 228 96 233 248zm-395 0c0 131 47 218 161 216 108-2 154-87 154-216 0-110-60-181-162-179-94 2-153 72-153 179" id="al"/><path d="M361-440c-134-13-201 52-201 181V0H80v-509h73v107c27-80 89-122 208-111v73" id="am"/><g id="k"><use transform="matrix(0.022222222222222223,0,0,0.022222222222222223,0,0)" xlink:href="#al"/><use transform="matrix(0.022222222222222223,0,0,0.022222222222222223,12.844444444444445,0)" xlink:href="#am"/></g><path d="M642-63c-61 47-152 75-263 75C153 12 54-131 63-371c7-209 103-342 312-342 132 0 220 62 256 162l-76 26c-28-79-91-115-192-114-163 2-223 134-217 316 6 179 81 262 245 262 69 0 126-13 171-40v-193H384l10-70h248v301" id="an"/><g id="l"><use transform="matrix(0.022222222222222223,0,0,0.022222222222222223,0,0)" xlink:href="#an"/><use transform="matrix(0.022222222222222223,0,0,0.022222222222222223,15.822222222222223,0)" xlink:href="#ak"/><use transform="matrix(0.022222222222222223,0,0,0.022222222222222223,30.555555555555557,0)" xlink:href="#Y"/><use transform="matrix(0.022222222222222223,0,0,0.022222222222222223,43.88888888888889,0)" xlink:href="#ad"/><use transform="matrix(0.022222222222222223,0,0,0.022222222222222223,57.22222222222222,0)" xlink:href="#ad"/></g><path d="M341-61c135 2 197-75 196-211v-428h83v426c1 180-97 286-280 286C166 12 73-99 73-274v-426h83v428c-1 132 58 209 185 211" id="ao"/><path d="M577-192C580-48 464 12 312 12 176 12 87-38 45-139l71-37c32 78 95 116 206 116 101 0 172-35 172-131 0-127-140-121-247-141-125-23-186-83-181-195 6-131 112-187 254-186 122 0 210 54 245 143l-73 31c-26-70-88-101-185-101-90 0-159 36-159 125 0 119 144 110 245 129 110 21 181 75 184 194" id="ap"/><g id="m"><use transform="matrix(0.022222222222222223,0,0,0.022222222222222223,0,0)" xlink:href="#ao"/><use transform="matrix(0.022222222222222223,0,0,0.022222222222222223,15.4,0)" xlink:href="#ap"/></g><path d="M34-700h90l170 577 164-577h80l164 578 171-578h85L739 0h-76L497-581 330 0h-76" id="aq"/><path d="M487-88C452-25 380 14 279 12 122 9 44-100 52-273c7-153 82-248 235-248 160 0 231 112 218 289H131c0 113 52 177 163 177 69 0 107-26 132-70zm-61-205c5-103-48-163-147-161-91 2-144 66-147 161h294" id="ar"/><path d="M468-143c3 119-84 155-209 155C148 12 75-27 41-105l64-32c28 58 79 83 166 82 82-1 120-26 120-82 0-89-118-81-193-93-84-14-140-52-140-146 0-143 206-179 324-116 35 19 59 45 72 79l-64 29c-23-50-70-70-142-70-62 0-115 24-113 83 0 89 120 72 194 86 79 15 138 57 139 142" id="as"/><path d="M209-154c-8 99 82 94 176 91V4h-94C180 6 129-47 129-149v-294H20v-66h109v-154h80v154h176l-11 66H209v289" id="at"/><g id="n"><use transform="matrix(0.022222222222222223,0,0,0.022222222222222223,0,0)" xlink:href="#aq"/><use transform="matrix(0.022222222222222223,0,0,0.022222222222222223,20.733333333333334,0)" xlink:href="#ar"/><use transform="matrix(0.022222222222222223,0,0,0.022222222222222223,33,0)" xlink:href="#as"/><use transform="matrix(0.022222222222222223,0,0,0.022222222222222223,44.199999999999996,0)" xlink:href="#at"/></g><path d="M180 0v-1490h190v644h782v-644h190V0h-190v-678H370V0H180" id="au"/><path d="M653-1490V0H466v-1314h-10L96-1047v-204l324-239h233" id="av"/><path d="M646 20c-332 0-524-278-524-764 0-483 194-766 524-766s524 283 524 766c0 485-191 764-524 764zm0-166c218 0 341-220 341-598 0-380-123-601-341-601s-341 222-341 601c0 378 123 598 341 598" id="aw"/><g id="o"><use transform="matrix(0.010850694444444444,0,0,0.010850694444444444,0,0)" xlink:href="#au"/><use transform="matrix(0.010850694444444444,0,0,0.010850694444444444,16.514756944444443,0)" xlink:href="#av"/><use transform="matrix(0.010850694444444444,0,0,0.010850694444444444,25.553385416666664,0)" xlink:href="#aw"/><use transform="matrix(0.010850694444444444,0,0,0.010850694444444444,39.572482638888886,0)" xlink:href="#aw"/></g><path d="M628 24c-324 0-524-230-524-574 0-343 198-582 503-582 237 0 487 146 487 559v75H286c9 234 145 362 343 362 132 0 231-58 273-172l174 48C1024-91 857 24 628 24zM287-650h624c-17-190-120-322-304-322-192 0-309 151-320 322" id="ax"/><g id="p"><use transform="matrix(0.010850694444444444,0,0,0.010850694444444444,0,0)" xlink:href="#Q"/><use transform="matrix(0.010850694444444444,0,0,0.010850694444444444,16.23263888888889,0)" xlink:href="#H"/><use transform="matrix(0.010850694444444444,0,0,0.010850694444444444,21.614583333333336,0)" xlink:href="#R"/><use transform="matrix(0.010850694444444444,0,0,0.010850694444444444,34.75477430555556,0)" xlink:href="#X"/><use transform="matrix(0.010850694444444444,0,0,0.010850694444444444,46.484375,0)" xlink:href="#V"/><use transform="matrix(0.010850694444444444,0,0,0.010850694444444444,53.5373263888889,0)" xlink:href="#ax"/><use transform="matrix(0.010850694444444444,0,0,0.010850694444444444,66.49305555555556,0)" xlink:href="#F"/></g><path d="M798-719v166H144v-166h654" id="ay"/><g id="q"><use transform="matrix(0.010850694444444444,0,0,0.010850694444444444,0,0)" xlink:href="#R"/><use transform="matrix(0.010850694444444444,0,0,0.010850694444444444,13.140190972222221,0)" xlink:href="#X"/><use transform="matrix(0.010850694444444444,0,0,0.010850694444444444,24.869791666666664,0)" xlink:href="#ay"/><use transform="matrix(0.010850694444444444,0,0,0.010850694444444444,35.09114583333333,0)" xlink:href="#ax"/><use transform="matrix(0.010850694444444444,0,0,0.010850694444444444,48.26388888888888,0)" xlink:href="#I"/><use transform="matrix(0.010850694444444444,0,0,0.010850694444444444,60.742187499999986,0)" xlink:href="#X"/><use transform="matrix(0.010850694444444444,0,0,0.010850694444444444,72.47178819444443,0)" xlink:href="#V"/><use transform="matrix(0.010850694444444444,0,0,0.010850694444444444,79.7417534722222,0)" xlink:href="#av"/></g><path d="M180 0v-1490h190v1322h690V0H180" id="az"/><g id="r"><use transform="matrix(0.010850694444444444,0,0,0.010850694444444444,0,0)" xlink:href="#M"/><use transform="matrix(0.010850694444444444,0,0,0.010850694444444444,16.74262152777778,0)" xlink:href="#N"/><use transform="matrix(0.010850694444444444,0,0,0.010850694444444444,32.07465277777778,0)" xlink:href="#az"/><use transform="matrix(0.010850694444444444,0,0,0.010850694444444444,44.63975694444444,0)" xlink:href="#W"/><use transform="matrix(0.010850694444444444,0,0,0.010850694444444444,50.021701388888886,0)" xlink:href="#T"/><use transform="matrix(0.010850694444444444,0,0,0.010850694444444444,63.151041666666664,0)" xlink:href="#G"/></g><path d="M409 0L70-1118h191c89 329 165 560 243 925 75-353 154-601 240-925h192c85 325 161 564 235 922 77-354 157-598 244-922h191L1267 0h-179c-86-307-176-590-250-913C763-588 675-308 588 0H409" id="aA"/><g id="s"><use transform="matrix(0.010850694444444444,0,0,0.010850694444444444,0,0)" xlink:href="#R"/><use transform="matrix(0.010850694444444444,0,0,0.010850694444444444,13.140190972222221,0)" xlink:href="#X"/><use transform="matrix(0.010850694444444444,0,0,0.010850694444444444,24.869791666666664,0)" xlink:href="#ay"/><use transform="matrix(0.010850694444444444,0,0,0.010850694444444444,35.09114583333333,0)" xlink:href="#aA"/><use transform="matrix(0.010850694444444444,0,0,0.010850694444444444,52.87543402777778,0)" xlink:href="#ax"/><use transform="matrix(0.010850694444444444,0,0,0.010850694444444444,65.83116319444444,0)" xlink:href="#X"/><use transform="matrix(0.010850694444444444,0,0,0.010850694444444444,77.56076388888889,0)" xlink:href="#V"/><use transform="matrix(0.010850694444444444,0,0,0.010850694444444444,84.83072916666666,0)" xlink:href="#av"/></g><path d="M789 20c-398 0-667-293-667-764 0-473 273-766 655-766 315 0 558 198 612 487h-196c-61-191-204-311-415-311-262 0-471 207-471 590 0 380 208 588 482 588 249 0 420-165 425-427H828v-166h572v163c0 370-256 606-611 606" id="aB"/><path d="M154 0v-137l495-537c165-179 249-281 249-418 0-156-121-253-280-253-170 0-278 110-278 278H158c0-264 200-443 465-443 266 0 455 183 455 416 0 161-73 288-336 568L416-179v12h687V0H154" id="aC"/><g id="t"><use transform="matrix(0.010850694444444444,0,0,0.010850694444444444,0,0)" xlink:href="#aB"/><use transform="matrix(0.010850694444444444,0,0,0.010850694444444444,16.57986111111111,0)" xlink:href="#L"/><use transform="matrix(0.010850694444444444,0,0,0.010850694444444444,31.119791666666664,0)" xlink:href="#aC"/><use transform="matrix(0.010850694444444444,0,0,0.010850694444444444,44.67230902777778,0)" xlink:href="#aw"/><use transform="matrix(0.010850694444444444,0,0,0.010850694444444444,58.691406249999986,0)" xlink:href="#aw"/></g><g id="u"><use transform="matrix(0.010850694444444444,0,0,0.010850694444444444,0,0)" xlink:href="#R"/><use transform="matrix(0.010850694444444444,0,0,0.010850694444444444,13.140190972222221,0)" xlink:href="#X"/><use transform="matrix(0.010850694444444444,0,0,0.010850694444444444,24.869791666666664,0)" xlink:href="#ay"/><use transform="matrix(0.010850694444444444,0,0,0.010850694444444444,35.09114583333333,0)" xlink:href="#aA"/><use transform="matrix(0.010850694444444444,0,0,0.010850694444444444,52.87543402777778,0)" xlink:href="#ax"/><use transform="matrix(0.010850694444444444,0,0,0.010850694444444444,65.83116319444444,0)" xlink:href="#X"/><use transform="matrix(0.010850694444444444,0,0,0.010850694444444444,77.56076388888889,0)" xlink:href="#V"/><use transform="matrix(0.010850694444444444,0,0,0.010850694444444444,84.83072916666666,0)" xlink:href="#aC"/></g><path d="M232-923l-22-567h194l-22 567H232" id="aD"/><g id="v"><use transform="matrix(0.010850694444444444,0,0,0.010850694444444444,0,0)" xlink:href="#M"/><use transform="matrix(0.010850694444444444,0,0,0.010850694444444444,16.74262152777778,0)" xlink:href="#N"/><use transform="matrix(0.010850694444444444,0,0,0.010850694444444444,31.325954861111114,0)" xlink:href="#Q"/><use transform="matrix(0.010850694444444444,0,0,0.010850694444444444,47.55859375,0)" xlink:href="#S"/><use transform="matrix(0.010850694444444444,0,0,0.010850694444444444,60.67708333333333,0)" xlink:href="#aD"/><use transform="matrix(0.010850694444444444,0,0,0.010850694444444444,67.33940972222221,0)" xlink:href="#X"/></g><path d="M180 0v-1490h270l367 940c28 72 75 218 110 339 35-117 81-264 110-339l362-940h271V0h-187c2-448-5-837 7-1287-157 497-311 829-483 1287H842C666-458 514-784 354-1284c12 438 5 843 7 1284H180" id="aE"/><g id="w"><use transform="matrix(0.010850694444444444,0,0,0.010850694444444444,0,0)" xlink:href="#aE"/><use transform="matrix(0.010850694444444444,0,0,0.010850694444444444,20.07378472222222,0)" xlink:href="#W"/><use transform="matrix(0.010850694444444444,0,0,0.010850694444444444,25.455729166666664,0)" xlink:href="#X"/><use transform="matrix(0.010850694444444444,0,0,0.010850694444444444,37.18532986111111,0)" xlink:href="#X"/><use transform="matrix(0.010850694444444444,0,0,0.010850694444444444,48.91493055555556,0)" xlink:href="#W"/><use transform="matrix(0.010850694444444444,0,0,0.010850694444444444,54.296874999999986,0)" xlink:href="#E"/><use transform="matrix(0.010850694444444444,0,0,0.010850694444444444,67.62152777777777,0)" xlink:href="#T"/></g><path d="M786 20C389 20 94-260 94-744c0-487 299-766 692-766 339 0 597 194 641 529h-309c-28-162-156-258-326-258-233 0-388 179-388 495 0 323 157 493 387 493 170 0 298-97 328-259h309c-34 277-266 530-642 530" id="aF"/><path d="M628 22C291 22 81-210 81-554c0-346 210-578 547-578 336 0 547 232 547 578 0 344-211 576-547 576zm0-236c160 0 242-146 242-341 0-197-82-341-242-341S387-753 387-555c0 195 81 341 241 341" id="aG"/><path d="M428-647V0H128v-1118h283l4 231c63-156 176-245 348-245 232 0 384 159 384 421V0H847v-659c0-139-76-222-202-222-128 0-217 86-217 234" id="aH"/><path d="M633 22C291 22 81-200 81-553c0-345 210-579 537-579 292 0 525 185 525 567v84H378c7 183 109 277 260 277 105 0 184-46 216-132l272 51C1071-99 893 22 633 22zM380-669h474c-15-146-94-237-233-237-143 0-229 99-241 237" id="aI"/><path d="M628 22C291 22 81-210 81-554c0-346 210-578 547-578 265 0 455 142 497 372l-279 52c-25-116-99-188-215-188-160 0-244 139-244 341 0 200 84 341 244 341 116 0 193-74 217-195l279 51C1085-123 896 22 628 22" id="aJ"/><path d="M683-1118v229H474v562c0 71 29 104 102 104 23 0 73-7 95-13l43 225C647 9 580 16 520 16 296 16 174-96 174-301v-588H20v-229h154v-266h300v266h209" id="aK"/><g id="x"><use transform="matrix(0.013020833333333334,0,0,0.013020833333333334,0,0)" xlink:href="#aF"/><use transform="matrix(0.013020833333333334,0,0,0.013020833333333334,19.7265625,0)" xlink:href="#aG"/><use transform="matrix(0.013020833333333334,0,0,0.013020833333333334,36.08072916666667,0)" xlink:href="#aH"/><use transform="matrix(0.013020833333333334,0,0,0.013020833333333334,52.68229166666667,0)" xlink:href="#aH"/><use transform="matrix(0.013020833333333334,0,0,0.013020833333333334,69.28385416666667,0)" xlink:href="#aI"/><use transform="matrix(0.013020833333333334,0,0,0.013020833333333334,85.16927083333334,0)" xlink:href="#aJ"/><use transform="matrix(0.013020833333333334,0,0,0.013020833333333334,100.85937500000001,0)" xlink:href="#aK"/></g><path d="M449 0L49-1490h333c89 395 194 758 253 1185 65-426 176-790 269-1185h317c93 394 201 758 268 1181 60-425 164-788 253-1181h334L1675 0h-348c-90-376-204-711-266-1118C1004-714 886-373 798 0H449" id="aL"/><path d="M128 0v-1118h290v195h12c54-169 184-238 367-200v268c-27-8-86-15-130-15-138 0-239 95-239 234V0H128" id="aM"/><path d="M128 0v-1490h300v802h17l366-430h347L740-633 1179 0H826L514-456l-86 97V0H128" id="aN"/><path d="M428-1490V0H128v-1490h300" id="aO"/><path d="M440 22C227 22 68-92 68-313c0-250 202-322 422-343 195-21 271-24 271-105 0-95-63-149-175-149-116 0-187 57-211 129l-275-46c57-194 237-305 487-305 240 0 474 108 474 379V0H777v-155h-10C713-51 605 22 440 22zm85-211c140 0 238-93 238-211v-121c-37 26-156 42-222 51-111 16-185 59-185 149 0 87 70 132 169 132" id="aP"/><path d="M537 19C279 19 81-185 81-557c0-382 206-575 454-575 190 0 278 113 318 202h10v-560h300V0H868v-179h-15C812-89 719 19 537 19zm92-241c153 0 240-134 240-336 0-203-86-334-240-334-158 0-240 138-240 334 0 197 84 336 240 336" id="aQ"/><path d="M572 22C302 22 117-98 78-306l279-48c29 105 101 156 224 156 114 0 185-48 185-115 0-118-228-130-337-155-215-49-322-150-322-317 0-215 187-347 470-347 265 0 424 116 466 298l-266 47c-24-76-87-130-196-130-98 0-174 46-174 113 0 56 38 95 144 117l201 40c216 44 320 143 320 302 0 220-207 367-500 367" id="aR"/><g id="y"><use transform="matrix(0.013020833333333334,0,0,0.013020833333333334,0,0)" xlink:href="#aL"/><use transform="matrix(0.013020833333333334,0,0,0.013020833333333334,26.341145833333336,0)" xlink:href="#aG"/><use transform="matrix(0.013020833333333334,0,0,0.013020833333333334,42.6953125,0)" xlink:href="#aM"/><use transform="matrix(0.013020833333333334,0,0,0.013020833333333334,53.97135416666667,0)" xlink:href="#aN"/><use transform="matrix(0.013020833333333334,0,0,0.013020833333333334,69.44010416666666,0)" xlink:href="#aO"/><use transform="matrix(0.013020833333333334,0,0,0.013020833333333334,76.66666666666666,0)" xlink:href="#aG"/><use transform="matrix(0.013020833333333334,0,0,0.013020833333333334,93.28125,0)" xlink:href="#aP"/><use transform="matrix(0.013020833333333334,0,0,0.013020833333333334,108.76302083333334,0)" xlink:href="#aQ"/><use transform="matrix(0.013020833333333334,0,0,0.013020833333333334,125.57291666666664,0)" xlink:href="#aR"/></g><g id="z"><use transform="matrix(0.013020833333333334,0,0,0.013020833333333334,0,0)" xlink:href="#aK"/><use transform="matrix(0.013020833333333334,0,0,0.013020833333333334,9.505208333333334,0)" xlink:href="#aG"/></g><path d="M795 20C377 20 94-272 94-743c0-483 302-767 694-767 335 0 593 206 635 500h-310c-42-142-154-229-320-229-230 0-389 177-389 493s154 495 393 495c212 0 340-120 345-311H818v-232h620v186c0 391-269 628-643 628" id="aS"/><path d="M135 0v-1490h581c339 0 533 210 533 503 0 295-197 500-540 500H440V0H135zm305-733h220c186 0 274-104 274-254s-88-251-275-251H440v505" id="aT"/><path d="M750 21c-371 0-615-218-615-544v-967h305v942c0 174 123 299 310 299s309-125 309-299v-942h306v967c0 326-247 544-615 544" id="aU"/><g id="A"><use transform="matrix(0.013020833333333334,0,0,0.013020833333333334,0,0)" xlink:href="#aS"/><use transform="matrix(0.013020833333333334,0,0,0.013020833333333334,20.013020833333336,0)" xlink:href="#aT"/><use transform="matrix(0.013020833333333334,0,0,0.013020833333333334,37.29166666666667,0)" xlink:href="#aU"/><use transform="matrix(0.013020833333333334,0,0,0.013020833333333334,56.80989583333335,0)" xlink:href="#aR"/></g><g id="B"><use transform="matrix(0.010850694444444444,0,0,0.010850694444444444,0,0)" xlink:href="#L"/><use transform="matrix(0.010850694444444444,0,0,0.010850694444444444,14.539930555555555,0)" xlink:href="#aC"/><use transform="matrix(0.010850694444444444,0,0,0.010850694444444444,28.092447916666664,0)" xlink:href="#aw"/><use transform="matrix(0.010850694444444444,0,0,0.010850694444444444,42.111545138888886,0)" xlink:href="#aw"/></g><g id="C"><use transform="matrix(0.010850694444444444,0,0,0.010850694444444444,0,0)" xlink:href="#ax"/><use transform="matrix(0.010850694444444444,0,0,0.010850694444444444,12.955729166666666,0)" xlink:href="#R"/><use transform="matrix(0.010850694444444444,0,0,0.010850694444444444,25.21701388888889,0)" xlink:href="#ay"/><use transform="matrix(0.010850694444444444,0,0,0.010850694444444444,35.43836805555555,0)" xlink:href="#aA"/><use transform="matrix(0.010850694444444444,0,0,0.010850694444444444,53.22265625,0)" xlink:href="#ax"/><use transform="matrix(0.010850694444444444,0,0,0.010850694444444444,66.17838541666667,0)" xlink:href="#X"/><use transform="matrix(0.010850694444444444,0,0,0.010850694444444444,77.90798611111111,0)" xlink:href="#V"/><use transform="matrix(0.010850694444444444,0,0,0.010850694444444444,85.17795138888889,0)" xlink:href="#av"/></g></defs></g></svg>